<svg width="22" height="22" viewBox="0 0 22 22" fill="none" xmlns="http://www.w3.org/2000/svg">
<rect width="22" height="22" rx="11" fill="url(#paint0_linear_743_6035)"/>
<path d="M8.34509 9.2425H6.69308C6.31015 9.2425 6 9.54875 6 9.92688V15.3156C6 15.6937 6.31015 16 6.69308 16H8.34445C8.72802 16 9.03817 15.6937 9.03817 15.3156V9.92688C9.03817 9.54875 8.72802 9.2425 8.34509 9.2425ZM11.8244 6H10.1762C9.79201 6 9.48123 6.30687 9.48123 6.68625V15.3144C9.48123 15.6931 9.79201 16 10.1762 16H11.8251C12.2086 16 12.52 15.6931 12.52 15.3137V6.68625C12.5199 6.50419 12.4465 6.32964 12.3161 6.20096C12.1856 6.07228 12.0088 6 11.8244 6ZM15.3076 11.0781H13.6562C13.2732 11.0781 12.9631 11.3844 12.9631 11.7625V15.315C12.9628 15.4049 12.9806 15.494 13.0153 15.5771C13.05 15.6603 13.1009 15.7358 13.1653 15.7995C13.2296 15.8631 13.306 15.9136 13.3902 15.948C13.4743 15.9824 13.5645 16.0001 13.6555 16H15.3069C15.6899 16 16 15.6937 16 15.3156V11.7625C16.0002 11.6726 15.9824 11.5836 15.9476 11.5006C15.9129 11.4175 15.8619 11.342 15.7976 11.2784C15.7333 11.2149 15.6569 11.1644 15.5728 11.1301C15.4887 11.0957 15.3986 11.078 15.3076 11.0781Z" fill="url(#paint1_linear_743_6035)"/>
<defs>
<linearGradient id="paint0_linear_743_6035" x1="3.66667" y1="2.29167" x2="17.875" y2="20.1667" gradientUnits="userSpaceOnUse">
<stop stop-color="#9481FE"/>
<stop offset="1" stop-color="#87B7FF"/>
</linearGradient>
<linearGradient id="paint1_linear_743_6035" x1="11" y1="6" x2="11" y2="16" gradientUnits="userSpaceOnUse">
<stop stop-color="white"/>
<stop offset="1" stop-color="#B8D1FF"/>
</linearGradient>
</defs>
</svg>
